# xmcd CD database file
#
# Track frame offsets:
#	150
#	21312
#	52467
#	85045
#	113320
#	139022
#	166910
#	203170
#	229745
#	236355
#
# Disc length: 3651 seconds
#
# Revision: 0
# Processed by: cddbd v1.5.2PL0 Copyright (c) Steve Scherf et al.
# Submitted via: CDex 1.51
#
DISCID=7a0e410a
DTITLE=Charles McPherson - Duets with Rein De Graaff
DYEAR=1999
DGENRE=Jazz
TTITLE0=What is This Thing Called Love
TTITLE1=These Foolish Things
TTITLE2=I Remember You
TTITLE3=Darn That Dream
TTITLE4=Just Friends
TTITLE5=Pinehill Blues
TTITLE6=How Deep is the Ocean
TTITLE7=I'll Remember April
TTITLE8=My Melancholy Baby
TTITLE9=Star Eyes
EXTD=YEAR: 1999
EXTT0=
EXTT1=
EXTT2=
EXTT3=
EXTT4=
EXTT5=
EXTT6=
EXTT7=
EXTT8=
EXTT9=
PLAYORDER=
